# Licensed under CC-0
v -0.500000 -0.500000 -0.500000
v 0.500000 -0.500000 -0.500000
v 0.500000 -0.500000 0.500000
v -0.500000 -0.500000 0.500000
v 0.500000 0.500000 0.500000
vn -0.0000 -1.0000 -0.0000
vn 1.0000 -0.0000 -0.0000
vn -0.0000 0.7071 -0.7071
vn -0.7071 0.7071 -0.0000
vn -0.0000 -0.0000 1.0000
vt 0.000000 0.000000
vt 1.000000 0.000000
vt 1.000000 1.000000
vt 0.000000 1.000000
s 1
f 1/1/1 2/2/1 3/3/1 4/4/1
f 3/1/2 2/2/2 5/4/2
f 2/1/3 1/2/3 5/3/3
f 1/1/4 4/2/4 5/3/4
f 4/1/5 3/2/5 5/3/5
