
# Licensed under CC-0
g base
v -0.500000 -0.500000 -0.500000
v 0.500000 -0.500000 -0.500000
v 0.500000 -0.500000 0.500000
v -0.500000 -0.500000 0.500000
vt 0.000000 0.000000
vt 1.000000 0.000000
vt 1.000000 1.000000
vt 0.000000 1.000000
vn 0.0000 -1.0000 0.0000
s off
f 1/1/1 2/2/1 3/3/1 4/4/1

g pike_front
v 0.000000 0.000000 0.000000
vn 0.8944 0.4472 0.0000
s off
f 3/1/2 2/2/2 5/4/2

g pike_right
vn 0.0000 0.4472 -0.8944
s off
f 2/1/3 1/2/3 5/3/3

g pike_back
vn -0.8944 0.4472 0.0000
s off
f 1/1/4 4/2/4 5/3/4

g pike_left
vn 0.0000 0.4472 0.8944
s off
f 4/1/5 3/2/5 5/3/5
